<?xml version="1.0" standalone="no"?>
<!DOCTYPE svg PUBLIC "-//W3C//DTD SVG 20010904//EN"
 "http://www.w3.org/TR/2001/REC-SVG-20010904/DTD/svg10.dtd">
<svg version="1.0" xmlns="http://www.w3.org/2000/svg"
 width="534.000000pt" height="534.000000pt" viewBox="0 0 534.000000 534.000000"
 preserveAspectRatio="xMidYMid meet">
<metadata>
Created by potrace 1.14, written by Peter Selinger 2001-2017
</metadata>
<g transform="translate(0.000000,534.000000) scale(0.100000,-0.100000)"
fill="#000000" stroke="none">
<path d="M1760 5319 c-55 -7 -99 -13 -215 -24 -99 -10 -108 -13 -139 -44 -48
-48 -34 -121 27 -146 18 -7 78 -13 140 -14 106 -1 143 -4 242 -18 59 -8 47 -6
115 -22 142 -34 278 -128 332 -228 34 -62 55 -154 51 -225 -5 -111 -100 -325
-178 -403 -5 -6 -68 -53 -140 -104 -341 -245 -493 -382 -692 -621 -58 -69
-113 -135 -123 -146 -10 -12 -42 -52 -71 -90 -30 -38 -58 -74 -64 -81 -5 -7
-15 -18 -21 -26 -37 -45 -150 -218 -166 -256 -53 -124 -179 -535 -183 -598 -3
-35 2 -48 25 -73 15 -16 38 -30 50 -30 17 0 21 -4 15 -17 -13 -31 -75 -237
-80 -263 -2 -14 -13 -72 -24 -130 -10 -58 -21 -119 -24 -137 -11 -70 -21 -70
-69 -2 -119 169 -159 316 -163 602 -1 98 -4 180 -6 182 -4 4 -19 7 -94 20 -22
4 -48 9 -57 11 -32 9 -74 -122 -103 -321 -12 -81 -7 -264 10 -360 19 -105 94
-292 153 -377 58 -84 184 -194 293 -256 60 -34 62 -38 115 -182 108 -297 309
-527 598 -684 124 -68 369 -157 496 -182 14 -3 33 -7 42 -10 10 -3 28 -7 40
-9 13 -2 51 -9 85 -15 34 -6 85 -14 115 -18 69 -9 598 -8 663 1 273 40 576
123 835 227 255 103 640 310 664 358 29 59 -12 132 -75 132 -17 0 -72 -20
-122 -44 -51 -24 -144 -68 -207 -99 -162 -77 -320 -147 -320 -140 0 3 -6 1
-12 -5 -11 -8 -72 -29 -143 -48 -5 -2 -48 -15 -95 -28 -88 -26 -121 -31 -119
-18 5 29 -11 35 -121 48 -42 4 -108 16 -255 45 -115 23 -169 41 -100 33 55 -6
284 -6 337 0 24 3 70 8 103 11 231 20 760 184 828 256 37 40 37 91 1 124 -38
35 -69 32 -224 -20 -74 -25 -144 -47 -155 -50 -11 -2 -45 -11 -75 -19 -79 -23
-242 -53 -330 -63 -132 -14 -415 -7 -473 12 -7 2 -30 6 -52 9 -92 12 -311 86
-490 166 -326 146 -520 167 -830 88 -126 -32 -130 -32 -143 -4 -15 34 -8 271
12 368 35 178 123 376 242 548 74 107 96 133 214 250 173 171 264 228 790 492
389 195 466 235 565 293 74 43 252 162 318 212 31 24 57 40 57 36 0 -19 -104
-124 -168 -171 -147 -107 -405 -243 -752 -398 -122 -54 -326 -162 -450 -237
-65 -39 -220 -145 -230 -156 -3 -3 -27 -24 -55 -46 -58 -47 -162 -150 -209
-209 -93 -115 -174 -260 -183 -326 -5 -34 -1 -43 25 -70 21 -21 40 -30 63 -30
33 0 50 14 159 135 185 205 403 295 890 371 19 3 53 10 75 15 22 4 48 9 58 9
16 0 16 -2 2 -29 -8 -17 -24 -86 -35 -154 -41 -254 -83 -331 -248 -454 -100
-74 -116 -117 -69 -183 14 -21 26 -25 65 -25 64 0 234 85 361 181 93 69 239
212 298 291 15 21 31 39 36 41 4 2 7 10 7 17 0 7 4 15 8 17 4 2 28 35 52 73
64 99 63 98 126 220 31 61 60 115 65 122 18 21 28 73 19 102 -7 27 -5 31 22
42 57 23 146 87 203 145 48 49 62 58 88 55 23 -2 47 10 106 50 42 29 78 55 81
58 3 3 43 35 90 71 47 35 94 72 105 81 11 9 63 52 115 95 52 43 97 81 100 84
3 3 23 20 45 39 180 153 443 407 519 501 167 206 363 563 421 764 32 111 5
207 -71 256 -56 35 -71 37 -524 64 -52 4 -124 8 -160 11 -85 7 -186 13 -345
20 -358 15 -433 38 -645 196 -217 163 -480 316 -640 374 -117 43 -299 92 -405
110 -59 10 -571 14 -635 4z m340 -4958 c41 -11 126 -36 189 -56 62 -19 122
-35 132 -35 10 0 20 -4 23 -8 6 -10 -19 -9 -129 3 -38 4 -79 9 -90 10 -45 4
-175 32 -290 61 -92 23 -94 25 -61 39 40 17 136 11 226 -14z"/>
</g>
</svg>
